<?xml version="1.0" standalone="no"?>
<!DOCTYPE svg PUBLIC "-//W3C//DTD SVG 20010904//EN"
 "http://www.w3.org/TR/2001/REC-SVG-20010904/DTD/svg10.dtd">
<svg version="1.0" xmlns="http://www.w3.org/2000/svg"
 width="1280.000000pt" height="1280.000000pt" viewBox="0 0 1280.000000 1280.000000"
 preserveAspectRatio="xMidYMid meet">
<g transform="translate(0.000000,1280.000000) scale(0.100000,-0.100000)"
fill="#000000" stroke="none">
<path d="M6460 12136 c-41 -15 -80 -67 -80 -108 0 -48 -16 -66 -75 -83 -79
-22 -85 -41 -51 -141 26 -74 69 -237 97 -367 11 -50 10 -60 -2 -68 -20 -13
-86 -11 -197 6 -139 21 -220 51 -335 128 -16 10 -21 8 -35 -13 -8 -14 -66 -75
-127 -135 -124 -122 -150 -161 -141 -210 8 -39 35 -65 116 -113 63 -38 73 -53
113 -174 5 -15 18 -12 104 28 143 67 247 94 354 94 57 0 103 -5 126 -15 31
-13 35 -18 30 -43 -4 -15 -24 -105 -47 -199 -22 -95 -40 -179 -40 -187 0 -14
-21 -24 -94 -46 -24 -8 -66 -38 -111 -81 -48 -46 -94 -79 -137 -99 -61 -27
-66 -32 -76 -73 -7 -28 -37 -76 -80 -133 -92 -119 -110 -156 -143 -294 -18
-78 -15 -270 5 -350 29 -108 32 -120 84 -266 27 -78 47 -146 43 -152 -3 -5
-63 -13 -132 -17 -102 -5 -132 -4 -162 9 -42 17 -45 31 -17 83 42 79 18 153
-69 211 -54 35 -104 52 -160 55 -35 1 -47 -4 -80 -37 -21 -21 -55 -68 -76
-106 -21 -38 -51 -85 -68 -106 -30 -36 -103 -78 -119 -68 -4 3 -8 35 -8 72 -1
48 -7 79 -23 111 -19 39 -29 47 -77 64 -67 23 -195 33 -232 18 -35 -13 -74
-89 -93 -183 -24 -115 -22 -111 -62 -103 -19 3 -57 1 -83 -6 -39 -10 -52 -10
-64 0 -9 7 -48 67 -88 132 -81 134 -88 139 -198 139 -136 0 -223 -66 -266
-201 -23 -72 -30 -79 -78 -79 -22 0 -59 -5 -81 -11 -95 -26 -101 -25 -129 19
-47 74 -118 112 -210 112 -97 0 -189 -42 -227 -103 -16 -26 -19 -44 -15 -92 2
-33 7 -74 11 -91 7 -30 5 -32 -27 -39 -18 -4 -49 -18 -68 -31 -39 -27 -104
-32 -129 -10 -55 48 -223 113 -266 102 -13 -3 -48 -28 -78 -56 -85 -78 -118
-168 -97 -265 22 -97 24 -92 -72 -142 -100 -52 -155 -62 -234 -43 l-53 13 -48
-44 c-71 -65 -122 -127 -129 -156 -5 -19 3 -45 30 -97 20 -39 36 -79 36 -88 0
-9 -15 -29 -34 -43 -19 -14 -50 -57 -70 -94 -41 -79 -46 -83 -106 -100 -58
-17 -155 -88 -172 -126 -13 -30 -14 -77 -7 -291 5 -127 2 -133 -69 -159 -110
-41 -162 -68 -168 -89 -3 -11 -14 -29 -22 -39 -12 -13 -16 -39 -16 -91 0 -68
2 -77 48 -156 88 -156 87 -228 -4 -302 -109 -88 -144 -158 -145 -285 0 -83 13
-103 101 -153 59 -33 97 -79 95 -116 -2 -36 -1 -66 2 -94 2 -21 -7 -28 -58
-53 -33 -16 -73 -41 -89 -55 -42 -39 -76 -118 -76 -176 0 -82 29 -126 135
-206 109 -82 155 -133 155 -172 0 -45 -36 -60 -153 -66 l-102 -5 -45 -41 c-31
-30 -69 -51 -125 -71 -44 -16 -91 -32 -104 -37 -41 -15 -24 -72 50 -172 73
-97 88 -103 142 -56 19 17 41 30 50 30 19 0 29 -25 21 -54 -4 -17 1 -29 21
-45 40 -31 88 -42 205 -50 l104 -6 30 -45 c17 -25 76 -92 131 -150 56 -58 111
-121 123 -141 30 -49 52 -124 52 -176 0 -41 2 -44 48 -67 65 -34 128 -102 208
-226 37 -58 82 -122 100 -143 19 -20 34 -41 34 -45 0 -4 -13 -39 -30 -77 -21
-50 -30 -87 -30 -127 0 -55 1 -57 51 -102 50 -45 122 -76 175 -76 14 0 33 -13
48 -33 39 -51 197 -374 230 -469 8 -24 42 -115 76 -203 163 -419 215 -655 190
-865 -9 -80 -9 -87 12 -115 135 -186 382 -363 665 -476 110 -44 151 -56 293
-85 113 -23 129 -29 160 -60 l36 -34 103 0 c98 0 106 -2 164 -34 65 -35 110
-44 352 -65 331 -30 347 -32 425 -69 72 -33 76 -34 103 -18 35 20 64 20 97 1
16 -9 55 -14 105 -15 44 0 127 -4 185 -10 185 -17 499 -39 735 -51 512 -26
1375 11 1855 80 36 5 133 19 215 30 303 42 349 52 570 126 177 60 251 75 370
75 101 0 161 16 256 69 42 22 126 59 187 81 150 53 205 83 269 142 l53 51 0
114 c0 86 4 122 16 145 28 54 51 158 68 308 9 73 24 119 51 155 34 45 59 100
95 205 48 141 140 321 223 440 86 122 120 150 185 150 25 0 69 8 99 17 l53 18
26 80 c34 106 35 155 6 194 -12 17 -22 36 -21 43 0 7 32 33 71 58 131 84 211
199 238 340 13 71 36 103 123 167 l47 35 0 128 0 129 58 44 c31 24 110 81 175
127 233 165 335 311 353 507 8 81 11 77 -84 102 -47 13 -75 47 -70 83 3 22 6
23 74 20 82 -4 114 8 162 63 42 47 66 131 66 231 0 98 -10 117 -93 173 -90 61
-121 110 -107 167 10 38 51 71 119 96 52 19 61 26 77 62 9 23 26 49 36 58 17
14 19 31 19 129 l-1 113 -109 76 -110 76 -7 79 c-3 44 -9 94 -13 110 -6 26 -2
32 22 47 54 32 119 96 145 144 41 78 51 138 35 209 -15 66 0 53 -192 174 l-86
54 -65 128 c-35 71 -64 136 -64 144 0 8 20 24 45 36 90 42 134 124 142 263 l6
92 -39 34 c-21 18 -72 49 -114 69 -66 31 -85 35 -155 35 -61 1 -87 -3 -108
-16 -14 -10 -31 -18 -36 -18 -6 0 -24 21 -42 48 -17 26 -54 70 -82 99 l-51 52
37 78 c62 136 64 150 28 221 -82 163 -184 208 -381 166 -41 -8 -88 -13 -105
-10 -16 4 -61 27 -98 53 -65 44 -68 48 -62 77 3 17 8 58 11 91 4 52 1 66 -23
110 -47 85 -179 155 -290 155 -33 0 -53 -9 -101 -44 -115 -85 -122 -86 -237
-47 -33 11 -82 25 -110 31 -79 18 -85 28 -85 136 l0 94 -52 26 c-29 15 -73 40
-97 57 -146 100 -256 56 -347 -139 -24 -51 -48 -95 -53 -99 -6 -3 -23 0 -38 8
-15 8 -63 22 -107 32 -44 10 -89 27 -102 39 -22 19 -23 24 -12 53 11 28 8 39
-24 109 l-35 77 -93 34 c-117 42 -171 44 -207 6 -14 -16 -33 -44 -43 -63 -21
-42 -50 -140 -50 -169 0 -11 -8 -24 -17 -29 -10 -5 -101 -12 -203 -16 -102 -4
-205 -11 -229 -16 -57 -10 -65 -7 -80 35 -19 53 -57 92 -107 109 -43 14 -48
14 -117 -10 -40 -14 -89 -30 -110 -36 -40 -11 -46 -20 -66 -94 -6 -22 -20 -49
-31 -59 -19 -17 -24 -18 -53 -5 -18 7 -70 16 -117 19 -89 6 -110 13 -110 36 0
28 65 126 92 138 20 8 28 19 28 37 0 46 22 105 60 160 46 69 70 114 70 134 0
9 -15 19 -39 26 -44 12 -57 32 -35 55 18 17 42 19 78 5 18 -6 26 -6 26 1 0 15
-68 275 -92 349 -11 36 -42 110 -69 166 -61 129 -158 236 -298 328 -167 110
-249 147 -368 166 -73 12 -83 19 -83 64 0 19 -14 46 -43 80 -59 70 -59 68 -68
158 -8 83 -28 128 -55 128 -18 0 -16 -17 10 -87 19 -50 14 -85 -24 -168 -36
-79 -82 -140 -121 -161 -28 -14 -33 -14 -46 -1 -13 13 -12 19 6 55 11 22 25
60 31 84 17 68 40 248 40 309 l0 55 -112 -3 c-299 -9 -275 -6 -370 -51 -92
-45 -127 -51 -152 -26 -55 55 163 174 319 174 32 0 61 7 83 20 42 26 41 34 -7
27 -52 -7 -141 13 -235 52 -43 18 -87 31 -99 29 -21 -3 -22 -8 -22 -85 0 -92
-16 -124 -51 -105 -11 5 -47 13 -82 17 -80 9 -97 30 -87 105 8 59 32 81 99 90
40 5 41 6 63 70 32 93 59 109 112 65 69 -58 193 -97 404 -126 86 -11 97 -8
123 42 27 54 18 143 -29 279 -59 169 -71 219 -58 253 20 52 61 29 114 -64 35
-60 65 -86 108 -94 49 -9 59 9 24 45 -15 16 -24 33 -21 39 4 6 29 11 55 11 50
0 78 17 112 70 14 21 18 23 33 11 25 -21 20 -106 -15 -233 -43 -158 -57 -262
-38 -284 52 -62 165 -56 329 19 145 66 206 80 233 52 23 -23 9 -45 -56 -93
-72 -53 -90 -62 -132 -62 -46 0 -101 -23 -114 -48 -13 -25 6 -47 56 -68 48
-21 91 -17 141 12 48 28 59 25 64 -20 2 -16 9 -31 16 -34 10 -3 11 13 6 75 -8
96 7 128 63 139 19 4 37 12 39 19 7 17 -35 168 -51 184 -21 21 -80 1 -200 -68
-115 -66 -152 -81 -207 -81 -48 0 -106 23 -115 46 -9 24 12 123 68 324 27 96
45 178 41 181 -4 4 -30 2 -58 -4 -76 -16 -87 -8 -79 56 6 48 4 56 -19 84 -46
55 -156 78 -236 49z m169 -47 c33 -20 33 -21 27 -72 -9 -63 -39 -118 -77 -141
-39 -23 -120 -32 -149 -16 -20 11 -22 17 -16 59 3 25 18 69 31 98 43 87 114
115 184 72z m-511 -1732 c6 -7 12 -37 14 -67 l3 -55 57 3 c48 3 58 1 67 -16
13 -25 15 -301 2 -321 -7 -10 -30 -15 -73 -16 -35 -1 -110 -5 -169 -9 -91 -7
-107 -6 -122 8 -33 33 15 86 63 71 19 -6 20 -2 20 79 0 92 2 96 60 106 33 5
35 7 38 49 4 60 -4 92 -23 85 -8 -4 -15 -15 -15 -25 0 -28 -30 -36 -46 -14
-25 34 11 94 71 121 38 17 40 17 53 1z m399 -92 c17 -7 34 -23 38 -35 6 -19
12 -21 42 -15 27 5 44 0 79 -20 l44 -26 0 -71 c0 -40 -5 -109 -12 -155 -9 -65
-9 -86 0 -95 9 -9 42 -12 107 -10 105 3 119 -4 96 -55 -7 -14 -15 -61 -18
-103 -4 -61 -2 -85 11 -110 21 -44 20 -60 -4 -60 -13 0 -24 10 -30 25 -14 36
-37 31 -60 -15 -32 -62 -59 -75 -128 -62 -196 38 -214 38 -537 13 -234 -19
-217 -20 -240 16 -24 39 -27 40 -40 11 -13 -30 -37 -29 -46 2 -11 39 -10 166
1 195 8 22 15 26 35 21 22 -6 24 -3 27 36 l3 43 90 7 c49 4 117 12 150 19 47
9 70 9 95 0 30 -10 36 -9 58 11 49 46 53 66 50 246 -1 92 1 177 5 190 8 21 12
22 80 16 40 -4 86 -12 104 -19z m-591 -90 c13 -20 15 -38 9 -90 -7 -67 -23
-84 -44 -47 -8 14 -12 15 -23 4 -9 -9 -13 -41 -13 -95 l0 -82 -28 3 c-19 2
-34 -4 -48 -20 -19 -22 -19 -23 -34 -4 -9 11 -12 30 -9 45 11 50 149 311 165
311 5 0 16 -11 25 -25z m956 -132 c26 -23 40 -66 36 -114 -3 -44 -3 -44 -45
-47 -33 -2 -44 1 -57 20 -19 27 -22 138 -4 156 14 14 45 7 70 -15z m-1148
-445 c32 -14 40 -37 26 -74 -6 -16 -9 -43 -5 -61 5 -29 3 -33 -15 -33 -45 0
-83 133 -48 168 15 15 12 15 42 0z m856 -189 c97 -12 130 -28 130 -64 0 -31
-42 -59 -120 -80 -30 -8 -80 -22 -110 -31 -30 -9 -77 -17 -105 -19 -27 -1 -62
-5 -76 -9 -20 -6 -31 -3 -45 12 -11 10 -44 35 -74 54 -63 40 -112 93 -108 117
3 14 27 17 168 21 91 3 185 7 210 8 25 1 84 -3 130 -9z m-1293 -116 c9 -24
-27 -84 -67 -111 -27 -18 -45 -22 -85 -20 -48 3 -50 4 -53 35 -7 69 48 113
141 113 45 0 59 -4 64 -17z m653 -3 c11 -11 20 -31 20 -43 0 -13 -9 -50 -20
-82 -11 -32 -20 -73 -20 -92 0 -34 -16 -43 -38 -21 -17 17 -17 244 1 251 23
10 37 7 57 -13z m-1297 -24 c52 -48 81 -142 52 -166 -22 -18 -62 1 -71 35 -5
19 -11 24 -23 20 -37 -15 -77 -16 -95 -2 -23 17 -16 71 15 111 27 35 85 36
122 2z m-689 -12 c27 -69 -32 -144 -114 -144 -35 0 -38 -12 -10 -48 18 -22 19
-27 6 -40 -21 -21 -100 6 -104 36 -9 61 42 154 103 189 47 27 110 31 119 7z
m4794 -31 c6 -16 12 -39 14 -53 2 -16 11 -26 27 -30 33 -7 35 -19 11 -58 -24
-40 -117 -85 -164 -80 -30 3 -31 5 -34 58 -3 62 13 111 54 159 34 41 77 43 92
4z m-5541 -111 c34 -22 69 -191 43 -207 -16 -10 -37 12 -44 45 -15 80 -145
-24 -146 -117 0 -34 -38 -30 -51 4 -15 40 -1 239 18 255 25 20 156 35 180 20z
m6402 -17 c16 -8 31 -21 35 -30 11 -29 -20 -80 -78 -130 -70 -60 -80 -76 -65
-109 9 -20 9 -29 -1 -41 -19 -23 -43 -18 -71 16 -18 22 -38 34 -65 38 -38 6
-39 7 -42 51 -6 83 32 158 103 201 37 23 143 26 184 4z m-4485 -21 c24 -24 21
-102 -7 -144 -46 -74 -82 -119 -94 -120 -36 -1 -76 156 -54 212 21 56 119 88
155 52z m2766 -55 c0 -35 -78 -103 -144 -128 -81 -30 -91 -26 -90 32 1 81 52
112 192 116 37 1 42 -2 42 -20z m692 -181 c10 -26 -14 -80 -50 -116 -42 -42
-95 -71 -146 -79 l-33 -5 -6 98 c-3 54 -3 102 -1 106 9 14 231 10 236 -4z
m-6015 -19 c12 -4 31 -17 42 -28 18 -18 18 -22 6 -58 -8 -21 -14 -49 -15 -62
0 -20 -4 -23 -28 -18 -37 8 -56 -5 -49 -33 4 -17 -3 -32 -30 -59 -19 -20 -41
-48 -49 -63 -16 -30 -35 -36 -52 -15 -6 7 -12 44 -14 82 -3 64 -5 70 -28 75
-34 8 -36 30 -6 88 47 94 129 127 223 91z m7787 -16 c24 -12 33 -13 53 -2 18
9 29 10 41 2 14 -8 18 -29 20 -112 3 -109 -4 -124 -47 -102 -17 10 -24 7 -43
-16 -61 -73 -111 -95 -125 -55 -12 34 -24 42 -45 31 -35 -19 -59 17 -59 86 0
83 38 166 85 185 26 11 80 3 120 -17z m-5766 -91 c4 -38 -56 -155 -89 -173
-23 -12 -63 -1 -107 29 -15 11 -44 25 -64 31 -41 13 -44 21 -27 69 16 47 49
62 152 71 130 12 131 12 135 -27z m3660 26 c26 -26 7 -90 -38 -125 -21 -17
-49 -16 -56 1 -9 23 54 136 76 136 3 0 11 -5 18 -12z m-2313 -78 c13 -14 19
-37 19 -68 1 -41 -2 -47 -20 -50 -31 -4 -64 41 -64 88 0 20 3 40 7 43 13 13
40 7 58 -13z m-1730 -20 c10 -16 -14 -51 -85 -125 -36 -38 -90 -100 -119 -137
-29 -38 -58 -68 -65 -68 -7 0 -27 5 -44 11 -68 23 -140 -31 -208 -155 l-37
-68 16 -47 c8 -25 23 -67 33 -92 17 -44 17 -47 -2 -85 -14 -30 -42 -55 -116
-104 -110 -74 -153 -112 -175 -155 -26 -48 -19 -120 18 -210 27 -66 33 -94 33
-155 1 -92 -8 -108 -104 -185 -38 -30 -75 -65 -81 -78 -7 -12 -13 -54 -13 -93
0 -65 3 -78 49 -170 45 -89 50 -106 50 -166 0 -63 -2 -70 -45 -130 -41 -58
-45 -68 -48 -135 -5 -95 -1 -110 49 -167 l42 -48 -12 -61 c-6 -34 -13 -106
-14 -160 -3 -105 -12 -126 -45 -108 -11 6 -47 11 -79 11 -48 0 -68 -5 -105
-29 -25 -16 -53 -39 -62 -52 -35 -51 -5 -203 59 -291 58 -79 91 -97 200 -113
82 -11 102 -18 126 -41 28 -26 38 -67 21 -78 -5 -3 -22 3 -38 13 -51 31 -126
51 -189 51 -49 0 -75 -6 -123 -31 -102 -51 -117 -86 -87 -202 22 -86 20 -101
-20 -131 -56 -43 -80 -98 -79 -186 0 -58 5 -85 23 -120 47 -92 102 -131 196
-140 l60 -5 5 -56 c4 -49 11 -63 53 -112 38 -45 55 -57 87 -62 78 -13 186 11
301 66 150 73 69 -50 -121 -183 -47 -33 -101 -76 -121 -95 -34 -32 -45 -36
-120 -44 -46 -5 -113 -16 -149 -23 -36 -8 -129 -28 -207 -45 -106 -23 -169
-31 -243 -31 -107 0 -221 22 -241 46 -17 21 21 59 101 99 36 18 76 41 89 52
22 18 23 21 12 75 -7 30 -18 64 -26 74 -28 37 -18 59 56 119 94 76 109 102
109 191 0 170 -87 267 -265 294 -73 11 -96 27 -88 60 3 10 0 34 -6 52 -14 42
-103 138 -128 138 -11 0 -53 -9 -94 -20 -100 -26 -127 -26 -138 3 -5 13 -21
72 -35 131 -14 59 -35 120 -46 134 -15 18 -19 34 -15 53 4 17 -1 40 -14 65
-18 35 -20 69 -28 364 -13 530 -4 786 33 940 32 135 108 329 272 697 111 249
127 277 188 316 39 26 50 39 56 71 10 48 96 149 158 186 23 14 89 61 148 106
164 124 254 182 391 249 266 132 527 235 714 284 165 43 319 62 332 41z m3843
-2 c7 -7 12 -27 12 -45 0 -36 15 -42 49 -21 42 26 80 -23 41 -54 -18 -15 -36
-18 -79 -16 l-56 3 -3 59 c-4 81 7 103 36 74z m-2232 -60 c4 -7 9 -565 11
-1240 3 -1052 2 -1232 -11 -1255 -8 -16 -37 -47 -64 -71 -49 -40 -51 -44 -57
-108 -9 -80 3 -116 69 -201 32 -41 48 -72 49 -94 2 -32 2 -32 -72 -51 -136
-33 -241 -127 -241 -214 0 -33 5 -47 25 -62 14 -11 25 -26 25 -34 0 -23 -49
-62 -128 -103 -106 -55 -132 -102 -132 -236 0 -139 58 -242 165 -294 47 -24
65 -27 127 -24 l73 4 6 -42 c6 -51 33 -82 103 -122 161 -91 92 -158 -219 -211
-33 -6 -181 -15 -330 -20 -245 -9 -333 -16 -478 -36 -43 -6 -49 -5 -54 14 -3
12 -27 35 -54 51 -74 46 -99 102 -51 115 10 2 38 9 64 16 60 16 116 63 152
129 24 45 26 55 16 85 -6 19 -26 54 -45 78 -19 24 -38 58 -41 76 -6 28 -3 33
22 43 144 58 243 130 281 203 35 67 11 188 -49 243 -39 36 -134 89 -185 103
-67 18 -73 25 -73 84 0 135 -30 159 -205 160 -60 1 -136 -3 -167 -8 -58 -8
-58 -8 -58 17 0 14 15 43 35 67 19 23 35 52 35 65 0 12 -22 78 -49 146 -105
263 -145 488 -145 814 0 395 34 558 228 1095 18 48 52 90 73 90 7 0 25 19 39
43 71 115 231 237 485 370 81 42 187 103 235 135 102 67 123 75 219 91 141 24
167 32 232 66 67 36 126 45 139 23z m1424 -19 c65 -30 226 -82 365 -119 66
-17 154 -40 195 -51 341 -90 515 -175 758 -372 110 -89 236 -212 302 -293 134
-167 177 -274 270 -679 79 -345 84 -614 18 -1020 -19 -120 -46 -166 -161 -279
-57 -55 -109 -114 -114 -131 -6 -16 -14 -38 -17 -48 -5 -17 -12 -18 -59 -10
-28 4 -78 7 -109 7 -109 -3 -198 -72 -198 -153 1 -53 41 -141 97 -213 63 -78
92 -135 100 -193 6 -50 -6 -62 -52 -51 -18 5 -27 17 -36 49 -18 68 -35 92 -89
127 -69 44 -158 70 -241 70 -123 0 -177 -43 -199 -157 -12 -61 -14 -63 -51
-73 -63 -17 -120 -68 -156 -139 -28 -55 -33 -75 -33 -135 0 -78 20 -132 62
-178 30 -31 99 -68 127 -68 11 0 27 -7 36 -16 22 -23 12 -60 -27 -96 -25 -23
-29 -33 -23 -56 3 -15 14 -36 23 -46 19 -21 129 -76 152 -76 31 0 80 -39 80
-64 0 -33 -9 -37 -66 -27 -27 5 -123 22 -214 39 -239 43 -313 52 -421 52 -89
0 -100 2 -167 36 -54 26 -79 45 -97 74 -16 25 -35 42 -53 46 -50 12 -103 45
-112 69 -18 46 -5 55 77 55 111 0 154 34 182 145 29 113 30 114 69 121 77 13
112 25 142 51 69 57 98 174 65 260 -10 25 -46 83 -80 128 -98 128 -116 161
-118 214 -1 25 1 58 5 72 7 23 0 36 -57 97 -66 71 -104 94 -182 107 -38 6 -43
10 -47 38 -3 18 -8 208 -11 422 -3 215 -10 647 -15 960 -10 663 -13 1486 -4
1509 8 21 30 20 84 -5z m1088 -98 c-3 -40 -6 -46 -28 -49 -43 -7 -99 16 -115
48 -27 53 2 73 68 45 11 -5 17 -3 17 7 0 8 6 20 13 27 22 22 48 -24 45 -78z
m-1777 52 c33 -28 59 -78 59 -114 0 -18 -4 -21 -29 -16 -39 8 -51 -8 -51 -67
0 -70 -17 -86 -93 -86 -49 0 -65 -4 -84 -22 -29 -27 -35 -20 -59 60 -14 47
-14 57 1 107 39 134 174 207 256 138z m-2316 -10 c14 -13 16 -32 13 -94 -1
-43 -7 -81 -11 -85 -19 -20 -66 73 -67 131 0 23 26 65 40 65 5 0 16 -8 25 -17z
m4908 -33 c31 -25 57 -90 60 -150 2 -41 0 -45 -23 -48 -14 -2 -51 -12 -83 -23
-112 -37 -137 -23 -137 80 0 77 14 100 49 82 32 -18 36 -13 33 34 l-4 45 40 0
c24 0 49 -8 65 -20z m-2915 -26 c2 -16 -6 -52 -18 -78 -16 -38 -20 -69 -20
-152 0 -86 -3 -106 -16 -111 -31 -12 -39 15 -38 135 1 121 14 194 42 225 23
26 46 17 50 -19z m-3869 2 c7 -9 11 -38 9 -73 -2 -47 -7 -58 -21 -61 -41 -8
-78 64 -63 123 5 19 13 25 35 25 16 0 34 -6 40 -14z m4421 -69 c0 -33 -7 -53
-32 -85 -18 -23 -41 -42 -51 -42 -17 0 -19 6 -15 59 5 74 28 111 68 111 29 0
30 -2 30 -43z m2566 -63 c3 -23 3 -56 -1 -73 -13 -61 -104 -99 -97 -41 1 14 5
63 8 110 4 47 11 91 17 99 17 20 65 -42 73 -95z m-2441 1 l0 -70 -34 -3 c-42
-4 -51 8 -51 74 0 58 13 76 55 72 l30 -3 0 -70z m2580 39 l30 -36 120 -10
c138 -12 160 -20 306 -120 51 -35 108 -69 124 -75 17 -6 53 -19 80 -29 34 -12
65 -34 97 -67 33 -36 62 -55 100 -67 43 -15 56 -24 72 -55 15 -29 32 -43 80
-65 65 -29 88 -50 130 -118 22 -36 41 -50 100 -77 67 -30 74 -37 93 -81 11
-27 24 -60 28 -74 11 -38 64 -141 90 -175 58 -78 135 -286 210 -570 59 -226
71 -658 24 -930 -61 -361 -201 -801 -262 -824 -80 -31 -109 -47 -136 -75 -48
-49 -74 -120 -79 -212 -6 -115 13 -173 83 -254 42 -49 55 -71 55 -96 0 -47
-18 -51 -51 -11 -38 46 -109 91 -189 117 -85 29 -173 24 -229 -13 -39 -26 -81
-95 -81 -134 0 -29 -26 -53 -57 -53 -40 0 -109 -46 -141 -93 -53 -77 -85 -146
-78 -171 3 -13 42 -63 86 -112 44 -48 80 -94 80 -103 0 -9 -7 -25 -15 -35 -26
-34 -17 -62 32 -111 56 -55 156 -105 268 -135 139 -37 150 -44 118 -75 -47
-47 -107 -45 -263 9 -88 30 -128 49 -135 63 -21 42 -37 52 -93 59 -31 3 -102
24 -157 46 -124 49 -276 105 -425 156 -94 32 -116 43 -118 61 -2 11 1 21 7 21
6 0 52 18 103 40 99 42 145 81 155 131 7 38 29 49 97 49 105 0 197 65 252 176
23 47 26 62 20 110 -8 68 -26 106 -66 134 -45 32 -38 70 29 154 38 47 39 83 6
136 -51 81 -179 146 -270 137 -27 -3 -57 -7 -65 -9 -11 -2 -16 7 -18 29 -3 28
2 36 30 53 18 11 49 25 68 31 50 16 77 45 95 99 9 26 25 56 35 65 30 27 24 58
-22 115 -99 119 -109 134 -106 154 3 18 12 22 59 26 65 6 91 24 121 85 11 22
31 54 44 72 41 54 30 100 -50 216 -82 121 -68 153 128 295 63 45 80 81 80 172
1 108 -17 133 -146 209 -20 12 -52 39 -72 61 -67 75 -46 139 75 220 68 47 84
83 76 170 -9 107 -66 178 -184 231 -35 16 -65 34 -67 41 -2 7 -9 36 -15 63 -7
28 -24 62 -39 78 l-27 28 23 43 c14 26 39 52 64 67 80 47 110 81 119 135 18
112 -12 190 -91 234 -40 21 -60 25 -173 28 l-127 4 -6 27 c-3 14 -8 33 -10 43
-3 9 -38 46 -79 83 -87 77 -90 88 -45 172 32 60 36 83 20 114 -28 50 33 53 75
3z m1233 24 c19 -19 16 -147 -3 -155 -9 -3 -22 2 -30 13 -17 24 -40 129 -31
143 9 15 49 14 64 -1z m332 -6 c27 -13 35 -22 33 -42 -2 -14 -5 -59 -8 -100
-11 -131 -4 -123 -92 -115 -84 8 -93 4 -93 -53 0 -47 -16 -38 -67 37 -35 51
-43 71 -43 107 0 52 16 88 57 126 59 57 147 73 213 40z m-595 -51 c33 -7 44
-33 25 -56 -18 -22 -42 -18 -80 10 -19 14 -42 25 -52 25 -27 0 -35 30 -13 46
15 11 24 11 54 -3 20 -8 49 -18 66 -22z m-8489 12 c4 -10 10 -49 13 -88 5 -59
9 -70 25 -73 32 -6 46 26 46 100 0 54 3 70 16 75 11 4 22 -1 31 -13 19 -25 9
-181 -13 -204 -10 -11 -34 -14 -94 -12 -77 2 -80 2 -80 -20 0 -40 -15 -53 -44
-40 -83 38 -76 140 19 250 39 44 68 53 81 25z m5107 -39 c10 -47 5 -309 -6
-320 -4 -5 -16 -3 -25 2 -15 10 -17 33 -20 174 -2 113 1 167 9 177 18 21 33
10 42 -33z m-3122 -131 c4 -50 12 -108 19 -129 11 -33 11 -39 -5 -50 -24 -18
-61 -2 -105 47 -40 42 -70 51 -70 20 0 -11 5 -23 10 -26 15 -9 12 -45 -5 -51
-8 -4 -26 -3 -40 0 -24 6 -25 10 -25 84 0 56 6 89 21 122 34 75 43 81 123 78
l71 -3 6 -92z m-1383 -1 l-3 -47 -57 3 -57 4 -9 -34 c-11 -42 -42 -45 -56 -5
-18 49 28 103 110 132 58 20 76 6 72 -53z m6382 9 c23 -44 -1 -96 -52 -113
-19 -7 10 -49 77 -113 63 -60 88 -106 67 -127 -20 -20 -71 11 -100 61 -15 25
-53 74 -84 109 -32 35 -58 71 -58 79 0 8 13 19 30 24 21 8 36 24 49 55 22 48
52 59 71 25z m-4604 -47 c9 -37 -29 -114 -56 -114 -12 0 -25 10 -32 25 -17 38
21 115 57 115 18 0 26 -7 31 -26z m2541 -60 c39 -60 46 -192 13 -254 -14 -26
-59 -38 -71 -19 -14 22 -11 70 8 121 19 54 14 67 -21 48 -35 -18 -56 -7 -56
32 0 26 8 40 37 65 46 39 67 41 90 7z m2220 -14 c73 -42 126 -122 90 -136 -23
-8 -62 12 -117 61 -29 25 -63 50 -76 55 -23 9 -31 29 -17 43 15 16 72 5 120
-23z m-4873 -66 c39 -38 5 -120 -46 -112 -20 3 -23 9 -26 52 -2 27 -1 55 2 62
7 19 51 18 70 -2z m1685 2 c9 -10 10 -82 4 -278 -8 -254 -9 -263 -28 -263 -19
0 -20 8 -23 265 -1 146 0 270 3 277 6 17 30 16 44 -1z m705 8 c25 -10 19 -56
-19 -131 -49 -99 -72 -117 -153 -123 -61 -5 -67 -7 -70 -28 -3 -17 -9 -22 -25
-20 -28 4 -47 42 -47 97 l0 44 -52 -7 c-36 -5 -53 -4 -59 5 -12 19 7 46 37 53
15 4 46 20 68 35 57 39 99 60 143 70 45 11 155 14 177 5z m-4744 -54 c42 -42
36 -119 -9 -130 -36 -8 -36 -27 -2 -44 38 -20 52 -45 40 -68 -14 -25 -31 -22
-63 11 -15 16 -41 31 -57 35 -41 8 -40 53 2 101 22 25 33 48 34 73 1 20 3 38
4 40 5 9 34 -1 51 -18z m9122 -59 c53 -26 74 -42 76 -58 3 -18 -4 -24 -37 -33
-39 -10 -53 -31 -31 -45 15 -9 12 -41 -5 -55 -50 -42 -120 60 -82 120 15 25
-2 40 -45 40 -17 0 -31 8 -38 19 -13 25 -13 27 4 43 21 21 76 11 158 -31z
m-3929 2 c5 -17 6 -75 2 -127 -8 -112 -23 -125 -57 -50 -22 51 -22 132 1 187
15 37 42 32 54 -10z m2643 -58 c32 -55 30 -87 -7 -130 -18 -20 -32 -48 -33
-65 -2 -44 -17 -54 -72 -45 -64 9 -104 49 -104 103 0 21 -3 60 -6 85 -6 40 -4
47 12 53 11 3 39 14 64 24 25 11 63 18 84 17 35 -2 42 -7 62 -42z m-7656 6
c52 -52 76 -193 40 -237 -14 -16 -40 -2 -40 22 0 21 -19 27 -51 14 -33 -14
-36 -22 -14 -40 9 -7 15 -29 15 -51 0 -30 -5 -42 -26 -56 -38 -24 -58 -8 -62
51 -2 28 2 54 9 63 10 12 10 16 0 23 -22 13 -16 62 9 82 12 10 28 18 36 18 23
0 64 23 64 36 0 16 -23 24 -71 24 -32 0 -39 4 -39 19 0 25 46 61 77 61 14 0
37 -13 53 -29z m2088 13 c31 -22 28 -41 -22 -120 -39 -61 -47 -82 -60 -169
-42 -266 -43 -268 -89 -263 -38 4 -46 31 -26 90 11 36 10 43 -23 115 -41 90
-49 123 -41 180 6 45 23 59 53 43 31 -17 40 -43 29 -84 -6 -20 -9 -49 -7 -64
3 -24 7 -21 34 33 17 33 44 98 59 145 38 116 48 126 93 94z m198 -8 c13 -53
-32 -126 -78 -126 -15 0 -18 -14 -20 -122 -3 -118 -4 -123 -25 -126 -34 -5
-56 37 -48 90 4 24 2 56 -5 72 -9 26 -8 32 14 55 13 14 37 56 54 92 16 37 38
72 48 78 31 18 53 13 60 -13z m6813 -23 c18 -12 28 -14 42 -5 14 9 25 6 56
-17 52 -38 65 -56 61 -83 -4 -33 -34 -27 -108 21 -34 22 -71 43 -81 46 -18 6
-26 35 -12 48 10 10 16 9 42 -10z m-1876 -65 c26 -20 39 -74 21 -89 -12 -10
-20 -7 -44 16 -39 38 -52 26 -45 -43 7 -71 -3 -91 -39 -74 -61 28 -59 109 4
166 42 37 74 45 103 24z m1552 -40 c64 -42 100 -90 93 -125 -6 -30 -25 -24
-87 28 -60 50 -91 92 -91 124 0 23 15 19 85 -27z m790 14 l50 -17 1 -88 1 -88
-38 6 c-32 5 -39 3 -49 -14 -6 -12 -8 -26 -5 -32 14 -22 -17 -38 -71 -38 -63
1 -73 -5 -140 -93 -45 -57 -73 -76 -96 -61 -7 4 -23 6 -35 5 -37 -5 -55 36
-63 151 -11 153 -45 207 -95 153 -54 -59 -104 -1 -51 60 l24 29 49 -19 c26
-11 71 -20 98 -21 l50 -1 5 -169 c3 -94 8 -165 12 -160 4 6 19 42 34 80 20 52
29 95 33 169 6 91 8 100 32 118 31 24 111 46 164 47 22 0 63 -8 90 -17z
m-9934 -18 c12 -10 28 -31 35 -47 19 -36 23 -152 7 -168 -12 -12 -14 -12 -75
19 -3 2 -8 -7 -10 -20 -3 -21 -7 -23 -50 -20 -48 4 -58 -4 -36 -26 14 -14 -6
-42 -32 -42 -66 0 -83 146 -29 251 30 60 65 82 122 76 27 -2 56 -12 68 -23z
m1992 12 c3 -8 9 -41 12 -73 6 -46 2 -71 -14 -117 -11 -33 -26 -64 -33 -68 -7
-5 -34 -7 -60 -4 -45 5 -47 4 -50 -22 -4 -39 -50 -43 -74 -7 -24 37 -15 156
17 221 22 44 28 50 64 54 22 3 49 11 60 18 28 16 72 15 78 -2z m3231 -37 c14
-72 -2 -126 -41 -135 -34 -9 -53 12 -53 58 0 41 23 108 42 119 20 12 45 -8 52
-42z m144 -176 c6 -43 14 -132 17 -198 33 -658 44 -1032 32 -1068 -11 -32 -44
-49 -69 -35 -17 8 -18 51 -18 683 0 370 3 680 6 689 11 29 21 7 32 -71z m3920
26 c45 -82 113 -179 141 -200 35 -26 39 -44 14 -71 -32 -35 -70 -13 -108 62
-10 19 -33 53 -51 76 -47 57 -66 107 -54 139 13 34 37 32 58 -6z m-1587 -29
c16 -9 19 -22 19 -75 0 -35 -4 -67 -10 -70 -17 -11 -51 16 -66 50 -18 44 -18
70 2 89 18 19 28 20 55 6z m-3107 -43 c9 -26 6 -32 -47 -81 -47 -43 -57 -58
-57 -85 0 -26 -4 -32 -17 -29 -15 3 -19 15 -21 65 -3 59 -2 62 25 75 15 7 36
30 46 51 22 47 56 48 71 4z m355 -1 c16 -19 0 -87 -33 -136 -14 -21 -46 -53
-71 -70 -44 -30 -54 -51 -36 -79 13 -21 -5 -51 -30 -51 -35 0 -76 28 -110 74
-17 25 -38 47 -45 50 -37 14 1 137 55 175 58 41 245 67 270 37z m-2488 -45
c27 -22 29 -63 5 -154 -9 -33 -15 -62 -15 -65 5 -35 -16 -43 -37 -14 -23 30
-13 252 11 252 7 0 23 -8 36 -19z m5022 -9 c45 -50 81 -174 133 -462 25 -137
26 -562 1 -710 -30 -177 -97 -397 -126 -408 -44 -17 -42 111 4 259 21 65 40
154 47 213 20 183 -1 519 -51 821 -6 33 -15 87 -20 120 -6 33 -14 85 -20 115
-12 72 -2 89 32 52z m-7083 -42 c11 -11 20 -33 20 -50 0 -17 -9 -39 -20 -50
-40 -40 -70 -18 -70 50 0 68 30 90 70 50z m3829 6 c7 -8 12 -43 12 -78 -1 -35
2 -123 5 -195 5 -100 4 -137 -6 -148 -19 -23 -30 -18 -46 20 -18 45 -21 384
-2 403 16 16 23 15 37 -2z m968 -41 c29 -20 34 -52 25 -165 -7 -93 -8 -95 -32
-95 -39 0 -60 52 -60 153 0 115 17 142 67 107z m-5345 -66 c10 -19 20 -38 22
-44 2 -6 9 -5 17 3 18 17 46 15 53 -3 3 -8 3 -29 -1 -47 l-6 -31 39 7 c21 4
73 25 115 47 81 42 116 48 126 23 10 -25 -23 -83 -52 -90 -29 -7 -29 -9 -14
-69 13 -53 5 -95 -18 -95 -21 0 -63 39 -63 57 0 8 -4 11 -10 8 -5 -3 -10 -28
-10 -54 0 -26 -5 -52 -12 -59 -26 -26 -44 -11 -87 76 -55 108 -81 143 -131
176 -45 30 -46 34 -24 94 19 49 32 50 56 1z m2428 1 c36 -36 14 -110 -34 -110
-32 0 -46 19 -46 61 0 62 41 88 80 49z m5414 -11 c24 -19 27 -27 24 -73 -3
-44 -6 -51 -25 -54 -35 -5 -73 39 -73 86 0 62 28 77 74 41z m-5749 -59 c30
-27 60 -50 65 -50 20 0 9 -31 -15 -42 -32 -15 -98 4 -131 37 -26 26 -34 89
-11 98 26 11 39 5 92 -43z m7712 9 c46 -25 73 -55 73 -81 0 -18 -5 -19 -49
-13 -46 6 -50 5 -53 -17 -2 -15 -10 -23 -23 -23 -18 0 -20 8 -23 78 -3 71 -1
77 17 77 11 0 37 -9 58 -21z m-9347 -18 c17 -33 12 -99 -10 -121 -24 -24 -34
-25 -54 -4 -20 19 -20 24 -2 71 8 21 17 46 20 56 7 23 33 22 46 -2z m4149 -45
c13 -13 34 -27 47 -30 22 -6 24 -11 24 -70 0 -70 -13 -90 -52 -84 -20 3 -23 8
-20 38 3 24 -5 50 -24 86 -39 71 -22 110 25 60z m3672 4 c14 -8 19 -21 19 -55
0 -24 7 -71 16 -105 8 -34 13 -68 10 -76 -9 -24 -43 -16 -68 16 -29 37 -42 33
-86 -25 -18 -25 -46 -52 -63 -60 -51 -27 -57 -13 -54 136 2 72 5 132 6 133 9
7 156 45 177 45 13 1 32 -4 43 -9z m-8433 -20 c41 -25 67 -81 82 -174 8 -51 8
-72 -1 -82 -15 -18 -63 -17 -114 1 -55 20 -62 19 -69 -11 -9 -36 -44 -28 -74
16 -20 30 -23 43 -17 84 7 59 38 141 61 167 23 26 89 25 132 -1z m2540 -66
c33 -23 30 -73 -8 -109 -16 -16 -30 -33 -30 -38 0 -5 14 -22 31 -38 64 -59 12
-107 -54 -49 l-35 31 -12 -36 c-9 -29 -16 -35 -33 -33 -32 5 -24 44 31 150 2
5 -17 17 -41 27 -47 20 -63 46 -52 82 6 17 12 20 43 15 21 -4 51 -2 67 3 45
14 68 13 93 -5z m-505 -16 c12 -7 35 -12 52 -12 47 -1 57 -34 48 -158 -8 -98
-9 -103 -31 -106 -16 -2 -28 -15 -38 -37 -24 -58 -84 -55 -84 4 0 34 -10 48
-43 60 -23 9 -27 16 -27 51 0 22 6 56 14 74 7 18 17 53 21 77 4 24 9 47 12 52
7 11 52 8 76 -5z m639 -15 c17 -15 18 -39 18 -343 0 -180 -3 -330 -6 -333 -17
-17 -45 19 -65 84 -20 66 -21 84 -16 330 3 142 9 264 12 269 9 15 36 12 57 -7z
m7355 -19 c14 -21 18 -51 19 -143 0 -64 3 -125 5 -135 2 -10 -1 -21 -8 -23
-18 -7 -50 35 -62 82 -12 48 -15 227 -4 238 13 14 33 6 50 -19z m-167 -31 c19
-24 20 -35 15 -103 -7 -73 -6 -76 23 -112 37 -47 48 -90 64 -263 26 -278 16
-617 -24 -800 -43 -195 -55 -235 -143 -463 -70 -182 -104 -234 -159 -248 -54
-13 -52 5 22 193 39 98 86 226 106 284 98 297 136 586 106 816 -19 140 -43
303 -60 403 -13 73 -30 301 -24 312 11 18 53 7 74 -19z m-1746 -19 c23 -23 20
-45 -15 -87 -32 -39 -75 -50 -86 -22 -6 16 60 125 76 125 5 0 17 -7 25 -16z
m-2856 -26 c33 -33 -9 -150 -73 -207 -21 -18 -58 -41 -81 -52 -41 -17 -43 -20
-33 -43 15 -33 5 -56 -24 -56 -35 0 -64 38 -102 135 -39 97 -37 109 19 119 37
7 46 21 46 67 0 32 19 39 40 14 18 -21 48 -19 104 10 54 27 86 31 104 13z
m-4715 -39 c13 -21 -24 -112 -47 -117 -31 -6 -50 100 -24 126 17 17 58 11 71
-9z m9833 6 c28 -8 60 -25 71 -37 26 -28 46 -93 41 -133 -3 -30 -7 -32 -92
-50 -50 -10 -94 -64 -102 -123 -5 -43 -10 -52 -27 -52 -52 0 -146 157 -132
221 10 45 43 79 76 79 25 0 29 4 29 29 0 36 35 81 64 81 12 0 45 -7 72 -15z
m-5558 -27 c7 -7 12 -43 12 -90 0 -75 -1 -78 -23 -78 -13 0 -31 8 -40 18 -21
23 -33 113 -18 141 13 23 50 28 69 9z m-289 -113 c18 -38 42 -161 34 -180 -6
-18 -54 -20 -71 -3 -8 8 -12 48 -12 116 0 93 2 103 17 100 10 -2 24 -17 32
-33z m-2034 -112 c15 -22 17 -40 11 -117 -7 -98 5 -136 43 -136 36 0 41 -20
41 -159 0 -75 -5 -143 -10 -151 -17 -27 -39 9 -46 75 -4 36 -15 74 -29 96 -13
20 -39 68 -60 108 -21 43 -57 93 -86 121 -52 50 -59 72 -33 108 30 43 65 15
78 -61 5 -23 12 -37 19 -34 13 4 14 51 2 109 -4 20 -5 44 -2 53 10 25 53 18
72 -12z m-2165 -25 c16 -17 20 -35 20 -83 0 -95 -26 -107 -110 -50 -51 34 -53
35 -72 18 -45 -40 -158 -9 -158 43 0 33 33 44 104 37 38 -4 65 -2 82 7 19 11
27 11 36 2 19 -19 26 -14 33 18 8 36 35 40 65 8z m9779 -61 c18 -36 21 -62 21
-160 0 -67 -4 -118 -10 -122 -20 -12 -52 8 -66 42 -11 25 -15 68 -13 151 1 65
4 120 6 125 12 21 43 4 62 -36z m-9660 -39 c9 -30 11 -83 6 -190 -9 -169 -17
-185 -67 -130 -25 29 -28 40 -28 100 0 37 7 98 15 137 8 38 15 79 15 90 0 25
18 45 35 39 7 -3 18 -24 24 -46z m4110 -16 c6 -12 6 -34 0 -63 -6 -24 -9 -80
-7 -124 3 -68 1 -80 -14 -83 -22 -4 -54 32 -62 70 -16 82 1 178 37 203 28 19
34 19 46 -3z m-4632 -57 c81 -46 82 -67 7 -109 -33 -18 -40 -28 -44 -61 -5
-38 -7 -40 -42 -43 -43 -4 -46 -14 -18 -60 24 -39 19 -52 -20 -52 -35 0 -65
29 -81 78 -18 54 -7 189 19 240 21 40 24 42 69 42 34 0 62 -9 110 -35z m8562
26 c7 -5 17 -30 22 -56 5 -27 15 -56 23 -64 18 -20 5 -55 -25 -72 -23 -12
-219 -43 -226 -35 -3 2 -6 50 -9 105 l-4 101 28 14 c30 17 168 22 191 7z
m-6321 -59 c51 -47 62 -63 62 -89 0 -36 -15 -54 -59 -73 -22 -9 -34 -22 -39
-44 -8 -32 -52 -60 -112 -73 -24 -4 -31 -1 -40 19 -9 19 -7 35 9 77 l20 53
-29 11 c-38 14 -44 31 -25 70 15 33 108 105 135 106 9 1 43 -25 78 -57z
m-1928 28 c35 -35 15 -120 -29 -120 -28 0 -41 21 -41 70 0 68 30 90 70 50z
m4900 -180 c80 -41 150 -154 150 -242 0 -43 42 -37 130 19 60 39 83 48 130 51
52 4 59 2 79 -23 55 -71 65 -212 19 -303 -26 -54 -28 -55 -206 -113 -101 -33
-135 -40 -144 -31 -30 30 45 97 124 110 l43 8 0 44 0 45 -39 3 c-63 5 -82 -4
-100 -48 -19 -48 -30 -49 -111 -11 -70 33 -85 28 -85 -29 0 -50 -23 -70 -44
-38 -39 59 -49 104 -54 226 -5 130 -14 148 -41 78 -12 -31 -12 -54 -1 -150 15
-129 11 -158 -25 -174 -35 -16 -32 -40 21 -171 49 -122 49 -141 -6 -141 -40 0
-53 21 -45 70 7 39 4 44 -39 90 -25 26 -48 61 -51 77 -4 15 -7 31 -8 34 -4 16
-280 220 -287 213 -4 -5 -10 -33 -13 -61 -7 -58 5 -73 56 -73 31 0 50 -22 45
-52 -2 -19 -10 -24 -42 -26 -58 -5 -118 22 -169 77 -52 56 -71 111 -64 184 5
54 28 91 77 125 55 37 115 27 196 -34 17 -13 33 -24 36 -24 3 0 8 18 12 41 20
124 117 230 245 266 59 16 162 8 211 -17z m-2395 -73 c16 -26 42 -173 32 -184
-13 -12 -57 16 -77 49 -47 78 -4 209 45 135z m-2305 -49 c24 -26 25 -49 4
-111 -18 -55 -24 -60 -58 -51 -34 8 -41 35 -25 108 16 81 39 96 79 54z m9995
-50 c25 -11 25 -13 25 -123 0 -84 -4 -115 -14 -124 -8 -7 -40 -11 -76 -9 -54
2 -64 -1 -79 -21 -16 -21 -18 -21 -32 -5 -9 11 -15 45 -17 93 -4 96 20 144 88
179 50 25 68 27 105 10z m-8070 -29 c35 -17 53 -68 62 -182 3 -46 11 -81 18
-83 25 -10 69 19 127 81 69 74 107 91 166 76 101 -28 145 -91 151 -219 l3 -84
-89 -83 c-112 -105 -159 -186 -169 -292 -8 -80 6 -103 60 -103 78 0 90 -61 19
-95 -24 -12 -49 -29 -56 -39 -23 -31 -47 -13 -47 34 0 35 -4 42 -39 64 -35 22
-40 31 -46 77 -10 72 4 344 19 365 11 15 14 15 29 -1 9 -9 17 -28 17 -42 0
-15 5 -23 13 -21 8 3 14 36 18 94 3 50 9 96 13 103 5 7 24 19 42 27 37 16 45
34 15 34 -32 0 -64 -16 -94 -46 -25 -25 -28 -34 -23 -68 l7 -39 -33 8 c-52 13
-121 12 -125 -2 -3 -7 11 -20 31 -29 68 -33 59 -73 -23 -103 -99 -36 -108 -19
-90 159 13 135 9 171 -20 163 -14 -3 -36 9 -71 38 -27 23 -53 40 -56 36 -3 -3
4 -61 16 -129 13 -73 25 -183 28 -270 4 -132 3 -148 -12 -154 -11 -4 -26 2
-40 15 -13 12 -41 24 -62 27 -34 4 -36 3 -17 -7 14 -7 23 -23 25 -43 3 -29 7
-32 83 -58 80 -26 115 -54 115 -89 0 -31 -15 -30 -93 6 -41 19 -145 58 -231
86 -148 48 -160 54 -216 105 -99 92 -134 196 -94 281 20 40 57 68 82 60 15 -5
116 -44 199 -78 51 -21 63 0 31 48 -24 36 -25 44 -24 175 1 153 6 164 81 200
34 16 57 18 155 15 71 -2 127 -9 145 -18z m285 -14 c17 -21 5 -62 -25 -81 -31
-20 -100 -30 -109 -15 -9 14 29 87 51 100 26 15 69 13 83 -4z m-2373 -230 l-2
-175 -25 0 c-14 0 -36 7 -49 16 -21 15 -23 22 -17 64 8 56 4 60 -98 110 -49
24 -72 41 -74 55 -4 32 39 89 70 93 61 7 95 -48 41 -69 l-27 -10 21 -21 c28
-28 49 -18 64 31 15 51 43 81 74 81 l23 0 -1 -175z m8046 -13 c23 -25 39 -73
33 -98 -4 -14 -24 -31 -52 -44 -41 -20 -47 -21 -61 -7 -13 12 -14 29 -8 91 l7
76 32 0 c19 0 40 -8 49 -18z m-8435 -150 l3 -133 -51 7 c-41 5 -50 4 -50 -9 0
-31 13 -48 51 -67 46 -24 55 -36 39 -55 -20 -24 -56 -17 -115 20 l-55 36 0
100 c0 102 13 153 48 193 23 25 71 46 102 43 l25 -2 3 -133z m559 67 c17 -58
7 -236 -14 -243 -19 -8 -50 10 -64 35 -14 27 -2 261 15 271 19 13 50 -18 63
-63z m7352 42 c5 -9 11 -54 13 -100 l5 -83 -32 -14 c-45 -18 -55 -50 -55 -170
l0 -106 -41 7 c-33 6 -46 3 -77 -18 -54 -36 -81 -43 -88 -20 -12 39 -22 48
-59 53 -45 6 -67 34 -54 68 13 34 75 31 119 -8 42 -35 60 -38 60 -7 0 13 -17
38 -41 61 -41 38 -41 39 -36 96 6 73 39 125 114 183 112 86 151 99 172 58z
m129 -25 c15 -8 49 -37 76 -65 l49 -50 5 -149 c4 -143 3 -151 -18 -172 -12
-12 -31 -20 -43 -18 -21 3 -22 7 -25 155 -3 170 7 147 -94 233 -43 36 -45 42
-22 64 19 20 37 20 72 2z m-2674 -48 c10 -24 12 -57 7 -118 -5 -71 -9 -85 -24
-88 -32 -6 -59 28 -54 68 6 36 26 135 33 158 6 22 25 13 38 -20z m-445 -94
c14 -18 21 -41 21 -71 0 -48 -13 -59 -54 -49 -28 7 -37 41 -29 104 7 50 30 56
62 16z m1107 -39 c45 -34 96 -114 92 -145 -2 -20 -17 -32 -73 -60 -38 -19 -70
-39 -69 -45 0 -5 21 -13 47 -17 65 -9 141 -53 197 -115 91 -100 115 -229 63
-334 -33 -65 -45 -68 -210 -70 -110 -1 -113 -1 -113 -23 0 -17 14 -32 50 -54
43 -27 50 -36 50 -63 0 -20 -14 -52 -36 -87 l-37 -55 -95 7 c-173 12 -327 68
-420 151 -67 60 -98 110 -82 130 30 36 108 -2 137 -66 17 -38 20 -40 53 -35
20 3 41 14 49 26 19 28 38 25 68 -10 42 -50 233 -130 233 -98 0 18 -31 48 -49
48 -27 0 -60 29 -82 72 -20 39 -22 40 -61 35 -47 -6 -75 15 -85 64 -6 33 -18
44 -48 44 -30 0 -25 34 8 58 33 25 112 29 173 8 37 -12 44 -11 84 9 40 21 54
22 162 18 65 -3 118 -3 118 -1 0 2 -4 13 -10 23 -35 66 -233 107 -392 81 -84
-14 -105 26 -40 79 28 23 34 33 24 39 -8 5 -12 19 -10 32 5 36 40 36 82 -1 19
-17 40 -29 46 -25 21 13 8 41 -30 67 -45 32 -50 54 -20 102 27 44 87 75 159
82 34 4 61 11 61 15 0 30 -130 40 -180 14 -35 -18 -50 -43 -50 -83 0 -28 -5
-32 -54 -47 -30 -10 -78 -37 -111 -63 -101 -83 -147 -112 -172 -112 -14 0 -54
14 -89 31 -75 35 -121 91 -110 134 10 39 45 41 114 6 37 -18 77 -31 99 -31 35
0 47 9 148 110 61 61 132 125 159 142 94 61 183 65 252 13z m-2682 -31 c29
-11 21 -104 -16 -179 -26 -51 -30 -69 -22 -83 15 -23 58 -26 126 -8 104 27
176 -8 266 -128 57 -76 1 -144 -212 -256 -63 -34 -100 -34 -111 -1 -14 46 31
97 113 127 138 50 157 67 105 95 -44 24 -120 15 -249 -30 -150 -51 -164 -52
-164 -8 0 40 -15 57 -50 57 -40 0 -45 10 -45 90 -1 103 -5 110 -59 110 -25 0
-48 -6 -53 -12 -4 -7 -8 -42 -8 -78 0 -55 -3 -65 -18 -68 -11 -2 -30 7 -44 20
-32 30 -27 74 16 145 17 28 38 71 47 96 30 88 89 115 256 116 58 1 113 -2 122
-5z m4111 -18 c68 -29 72 -101 4 -77 -43 15 -99 13 -129 -4 -51 -29 -54 -10
-7 51 36 49 69 56 132 30z m-2853 -56 c29 -41 50 -57 187 -136 88 -52 144
-111 139 -149 -5 -33 -44 -31 -77 4 -36 38 -48 39 -109 1 -106 -65 -298 -139
-442 -171 -30 -6 -61 -13 -67 -15 -7 -2 -13 -13 -13 -24 0 -35 27 -76 75 -116
43 -35 48 -36 97 -31 29 4 96 16 149 28 103 23 136 21 124 -9 -4 -9 -10 -29
-12 -44 -5 -24 -1 -28 35 -38 26 -6 50 -22 66 -42 21 -27 26 -30 31 -16 4 9
-3 37 -14 63 -31 70 -13 92 49 60 29 -15 30 -15 30 7 1 75 31 88 79 33 63 -72
30 -149 -123 -284 -98 -86 -109 -91 -206 -91 -97 0 -147 18 -168 62 -26 55 24
89 126 87 29 -1 56 1 59 5 11 11 -90 106 -113 106 -12 0 -41 -15 -65 -33 -63
-48 -83 -57 -126 -57 -68 0 -116 20 -164 69 -74 73 -97 182 -63 289 34 104 92
142 218 142 67 0 86 7 86 31 0 14 -14 26 -44 38 -46 20 -66 54 -66 113 0 101
80 155 230 157 65 0 65 0 92 -39z m3406 20 c22 -21 38 -79 29 -104 -11 -27
-42 -36 -65 -20 -18 13 -22 25 -22 73 0 77 15 90 58 51z m-2986 -89 c34 -64
39 -158 11 -215 -33 -71 -59 -50 -67 55 -19 229 -19 221 6 217 15 -2 31 -20
50 -57z m5541 20 c35 -14 68 -60 65 -90 -4 -38 -51 -41 -88 -6 -33 32 -44 23
-60 -50 -12 -54 -52 -105 -82 -105 -18 0 -48 46 -48 74 0 26 -22 30 -40 6 -19
-25 -53 -21 -64 7 -12 29 118 137 197 165 51 17 71 17 120 -1z m-3200 -43 c9
-7 23 -31 30 -53 11 -32 23 -45 61 -65 68 -36 77 -90 14 -90 -69 0 -142 70
-168 161 -15 51 21 78 63 47z m1062 -18 c22 -9 47 -25 55 -34 13 -16 12 -20
-5 -33 -16 -12 -42 -14 -120 -10 -55 2 -108 8 -117 12 -25 10 -22 37 5 62 38
36 104 37 182 3z m-7786 -76 c24 -31 31 -139 9 -147 -20 -7 -46 11 -63 43 -15
29 -21 111 -8 123 14 15 43 6 62 -19z m7868 -66 c34 -32 29 -60 -20 -105 -89
-82 -313 -132 -325 -72 -1 8 20 31 47 52 45 33 57 37 110 37 53 0 63 3 90 31
17 17 31 38 31 48 0 37 32 42 67 9z m-7966 -47 c22 -17 24 -29 28 -111 3 -86
5 -92 27 -102 27 -13 28 -41 3 -46 -22 -4 -107 49 -114 71 -4 9 -1 33 5 52 9
28 9 47 -1 86 -11 43 -11 52 1 59 21 13 25 13 51 -9z m1514 -1 c18 -11 45 -36
59 -55 47 -62 91 -88 159 -94 49 -5 62 -10 65 -24 5 -26 -32 -62 -84 -82 -35
-13 -44 -21 -39 -34 17 -39 11 -46 -45 -53 -163 -19 -195 -20 -240 -4 -42 14
-46 14 -66 -5 -12 -11 -34 -24 -50 -28 -29 -7 -29 -8 -29 -84 0 -65 2 -76 15
-71 31 14 55 9 65 -13 12 -29 29 -35 61 -23 14 6 48 10 75 10 47 0 50 -2 66
-36 23 -47 10 -66 -53 -81 -121 -28 -235 -10 -294 46 -100 95 -63 285 65 335
28 11 52 21 53 22 2 2 -12 35 -32 76 -20 40 -39 89 -42 109 -5 32 -3 39 24 58
75 53 206 68 267 31z m3234 11 c19 -12 6 -60 -29 -103 -56 -67 -192 -112 -228
-76 -35 35 10 131 78 166 46 23 151 31 179 13z m1678 -23 c7 -16 5 -42 -8 -93
-10 -38 -19 -91 -19 -117 0 -43 -2 -48 -22 -48 -12 0 -68 -23 -125 -51 l-103
-51 0 -67 c0 -37 3 -71 7 -74 12 -13 33 16 33 47 0 38 15 56 46 56 32 0 36
-12 22 -64 -21 -79 16 -118 124 -134 l53 -7 3 -59 c4 -68 -14 -102 -59 -118
-26 -9 -29 -15 -29 -52 0 -50 -23 -86 -54 -86 -27 0 -41 14 -50 53 -8 35 5 60
61 119 25 25 44 51 41 58 -2 6 -45 29 -96 50 -145 61 -192 108 -192 194 0 122
80 211 230 256 44 13 54 20 52 36 -16 97 -14 119 12 147 30 33 59 35 73 5z
m196 -24 c43 -31 71 -70 82 -116 13 -51 -19 -46 -88 14 -34 31 -81 65 -104 77
-41 20 -52 38 -35 55 16 17 104 -1 145 -30z m-6992 -18 c202 -63 322 -215 306
-388 -6 -70 -20 -92 -48 -77 -17 8 -19 22 -19 109 0 83 -3 100 -15 100 -9 0
-20 -12 -25 -26 -7 -16 -16 -24 -28 -22 -13 3 -17 14 -17 46 0 47 -15 64 -89
103 -65 34 -125 49 -258 61 -119 11 -128 11 -148 -7 -23 -21 -25 -37 -7 -66
10 -17 9 -22 -8 -35 -15 -11 -46 -14 -135 -12 l-115 3 -3 33 c-3 25 3 39 27
62 26 26 36 30 88 30 63 0 103 19 103 48 0 31 16 43 66 52 68 12 269 4 325
-14z m2258 -10 c7 -9 11 -42 9 -88 -3 -66 -5 -73 -24 -76 -34 -5 -64 41 -64
99 0 26 3 54 6 63 8 20 57 21 73 2z m-1684 -101 c32 -31 32 -59 1 -90 -25 -25
-52 -25 -68 -1 -14 20 -8 84 8 100 21 22 31 20 59 -9z m270 -38 c40 -23 40
-23 39 -82 0 -47 -8 -75 -35 -130 -19 -38 -41 -70 -49 -70 -32 0 -41 45 -35
170 4 65 9 123 11 127 8 13 27 9 69 -15z m3414 -3 c39 -50 16 -112 -38 -99
-53 13 -66 61 -26 100 31 31 39 31 64 -1z m-3541 -40 c2 -11 -13 -42 -32 -70
-20 -27 -41 -61 -48 -76 -23 -53 -68 -25 -68 42 0 66 60 133 114 128 22 -2 32
-9 34 -24z m1713 16 c39 -21 14 -110 -32 -110 -52 0 -63 32 -29 88 21 34 30
38 61 22z m2464 -34 c57 -27 98 -53 105 -67 14 -26 8 -125 -10 -158 -17 -33
-40 -9 -40 42 0 34 -6 46 -42 81 -24 23 -63 57 -87 77 -32 25 -43 40 -38 52 3
9 9 17 13 17 4 0 48 -20 99 -44z m4580 29 c22 -8 63 -14 92 -15 63 0 83 -7 83
-29 0 -23 53 -111 84 -140 31 -29 33 -47 7 -61 -33 -17 -71 6 -152 90 -127
133 -144 116 -144 -145 0 -174 -1 -180 -21 -183 -28 -4 -70 32 -95 79 -62 123
-39 298 51 388 36 35 40 36 95 16z m-2080 -25 c8 -16 22 -64 30 -107 13 -66
13 -79 1 -91 -28 -29 -56 -5 -80 70 -4 14 -10 15 -38 6 -47 -16 -87 -13 -106
6 -26 26 -4 49 58 61 46 9 55 15 71 48 23 45 43 47 64 7z m-7573 -32 c9 -7 21
-29 27 -49 10 -32 16 -37 52 -42 50 -7 74 -24 58 -43 -6 -8 -25 -14 -41 -14
-88 0 -182 102 -136 148 15 15 20 15 40 0z m3315 -14 c3 -8 0 -27 -7 -42 -11
-25 -10 -29 16 -47 54 -39 105 -89 120 -116 22 -43 35 -121 26 -153 -8 -28
-15 -32 -123 -62 -74 -21 -137 -33 -181 -33 -62 -1 -70 2 -103 30 -27 24 -35
39 -33 58 3 23 8 26 83 37 103 15 190 44 190 64 0 21 -51 43 -99 43 -31 0 -44
-6 -61 -27 -11 -14 -26 -26 -33 -26 -20 0 -26 51 -14 120 6 36 8 85 5 109 l-6
44 74 -6 c54 -5 81 -3 99 7 34 19 40 19 47 0z m5233 -20 c69 -20 120 -69 120
-114 0 -50 -17 -69 -85 -100 -102 -46 -115 -100 -25 -100 68 0 83 -10 106 -67
28 -73 26 -177 -6 -225 -59 -87 -178 -118 -324 -83 -90 21 -98 8 -35 -60 48
-52 46 -67 -11 -119 -39 -35 -92 -56 -143 -56 -35 0 -87 49 -87 80 0 20 4 22
33 16 17 -4 46 -8 62 -9 l30 -2 3 138 c2 110 6 139 17 143 8 4 54 -4 102 -17
135 -35 303 -30 303 9 -1 61 -76 149 -190 224 -54 36 -66 48 -68 74 -4 40 28
79 76 94 55 18 82 38 82 61 0 20 -3 21 -66 14 -36 -4 -79 -11 -97 -16 -18 -5
-62 -9 -98 -9 -74 0 -98 14 -80 48 40 74 248 116 381 76z m-5683 -64 c18 -34
12 -100 -9 -114 -43 -27 -70 34 -48 107 13 44 37 47 57 7z m2429 -15 c42 -65
36 -201 -11 -242 -48 -42 -55 -26 -51 125 2 76 4 138 5 140 1 1 10 2 21 2 11
0 27 -11 36 -25z m5223 16 c17 -11 17 -45 -3 -136 -8 -38 -12 -83 -9 -98 5
-24 1 -29 -26 -40 -21 -8 -34 -22 -41 -43 -15 -46 -34 -59 -54 -39 -9 9 -16
21 -16 27 0 6 21 51 46 100 44 88 45 92 38 155 -5 50 -3 67 7 74 18 11 40 11
58 0z m-2675 -11 c16 -6 26 -17 26 -30 0 -30 -47 -118 -69 -130 -26 -13 -127
-13 -153 1 -59 32 61 168 149 169 12 0 33 -4 47 -10z m-6550 -21 c56 -15 96
-59 96 -103 0 -19 -5 -38 -10 -41 -18 -11 -51 6 -60 31 -12 30 -25 30 -105 -2
-69 -28 -113 -28 -151 1 -18 13 -18 16 -4 41 35 64 145 98 234 73z m1423 -104
c15 -31 16 -46 5 -133 -7 -53 -12 -109 -12 -124 0 -45 -28 -34 -53 20 -17 37
-22 64 -21 132 0 47 6 97 12 113 17 39 48 36 69 -8z m-309 -2 c5 -10 7 -24 5
-31 -3 -7 5 -44 17 -81 15 -44 20 -73 14 -84 -15 -26 -166 -147 -216 -173 -80
-40 -213 -28 -232 21 -10 26 -6 78 7 102 7 12 37 39 67 60 50 35 55 43 60 83
l5 45 65 5 c57 4 65 8 68 26 4 27 35 42 89 43 31 1 45 -4 51 -16z m551 -6 c16
-20 24 -72 17 -102 -14 -57 -94 0 -82 59 7 34 23 56 41 56 7 0 18 -6 24 -13z
m-1494 -77 c12 -52 -3 -84 -61 -134 -47 -41 -57 -46 -70 -35 -65 53 1 199 89
199 31 0 36 -4 42 -30z m8283 -58 c39 -51 -35 -180 -92 -159 -27 11 -30 53 -7
97 12 22 21 46 21 53 0 37 51 43 78 9z m-6950 -55 c19 -22 24 -65 12 -101 -12
-36 -32 -50 -60 -41 -27 9 -31 30 -13 72 8 21 19 48 24 61 10 25 22 28 37 9z
m6502 -25 c30 -18 70 -61 118 -126 83 -110 136 -150 212 -160 54 -7 63 -21 31
-50 -34 -31 -85 -31 -148 0 -56 27 -145 107 -190 169 -17 25 -24 28 -39 19
-25 -14 -30 -77 -10 -106 14 -20 14 -24 -1 -40 -20 -23 -107 -24 -177 -3 -91
28 -151 12 -116 -30 8 -9 10 -28 6 -49 -5 -23 -2 -37 6 -42 7 -5 64 -11 125
-15 89 -4 117 -10 133 -24 41 -37 16 -85 -45 -85 -25 0 -44 -24 -30 -38 4 -4
43 -6 87 -4 86 3 108 -5 108 -42 0 -31 -19 -46 -56 -46 -39 0 -52 -16 -31 -38
17 -16 46 -13 166 18 77 19 92 -5 41 -63 -86 -98 -323 -123 -470 -49 -61 31
-103 82 -98 122 3 25 4 25 106 28 93 2 102 4 102 22 0 29 -35 47 -135 71 -105
24 -135 39 -165 76 -18 24 -21 38 -18 88 8 116 62 177 189 216 l67 20 4 51 c5
46 11 57 57 101 48 46 54 49 89 42 20 -3 57 -18 82 -33z m-1215 -1 c55 -31 67
-54 35 -71 -43 -23 -130 31 -130 81 0 27 35 24 95 -10z m-7584 -7 c11 -14 10
-22 -8 -53 -11 -20 -27 -37 -35 -39 -8 -2 -28 14 -43 34 l-28 37 22 19 c29 22
74 23 92 2z m2104 -118 c20 -31 7 -67 -43 -118 -36 -38 -36 -38 -11 -38 30 0
61 -21 51 -35 -11 -16 -70 -55 -82 -55 -6 0 -22 11 -35 25 -19 18 -25 35 -25
69 0 41 2 45 30 51 22 5 32 14 36 33 15 70 26 92 45 92 10 0 26 -11 34 -24z
m-1975 -11 c21 -25 -2 -63 -44 -70 -32 -6 -34 -9 -25 -32 14 -38 11 -61 -11
-73 -31 -16 -60 4 -60 41 0 17 -7 43 -16 59 -10 15 -14 35 -11 44 15 39 141
62 167 31z m598 -35 c36 -22 71 -88 72 -133 0 -43 -26 -84 -61 -96 -17 -6 -36
-8 -41 -5 -14 9 -2 61 23 95 24 35 25 33 -32 62 -46 23 -61 55 -39 83 17 19
39 18 78 -6z m1817 -22 c46 4 113 -21 122 -45 14 -37 -90 -60 -132 -29 -16 12
-22 12 -40 0 -12 -8 -24 -11 -27 -8 -4 3 -34 -1 -68 -10 -68 -18 -100 -10
-100 25 0 23 26 35 93 44 36 5 51 12 64 32 16 25 17 25 32 6 12 -14 26 -18 56
-15z m1918 -14 c74 -37 98 -85 77 -149 -22 -67 -76 -73 -146 -15 -40 33 -56
40 -84 38 -32 -3 -36 0 -54 37 -28 60 -27 97 4 106 38 12 167 1 203 -17z
m-310 -26 c23 -29 31 -51 35 -91 4 -56 -19 -155 -40 -168 -7 -4 -35 11 -67 35
-31 24 -99 75 -152 114 -121 89 -128 98 -105 120 13 13 43 18 139 23 163 8
156 9 190 -33z m512 17 l40 -16 2 -99 c1 -63 -2 -102 -9 -106 -18 -11 -66 52
-73 93 -3 21 -10 57 -15 81 -10 41 -7 62 8 62 3 0 25 -7 47 -15z m-945 -15
c11 -6 32 -32 46 -58 15 -26 38 -59 52 -74 37 -40 24 -58 -40 -58 -56 0 -180
30 -229 56 -45 23 -99 74 -99 94 0 27 24 34 140 40 58 4 106 7 108 8 2 1 12
-3 22 -8z m1164 -16 c21 -21 28 -51 24 -110 -3 -43 -6 -49 -26 -52 -52 -8 -72
42 -56 141 7 41 30 49 58 21z m-1524 -14 c21 -11 50 -35 64 -53 30 -39 65
-115 66 -139 0 -28 -45 -23 -68 7 -35 44 -100 29 -121 -28 -13 -32 -34 -34
-62 -6 -14 14 -19 27 -14 42 20 64 19 65 -29 88 -46 21 -67 54 -51 79 22 35
154 41 215 10z m-1096 -3 c26 -19 17 -59 -16 -75 -32 -15 -107 -6 -115 15 -7
18 33 61 61 66 40 8 52 7 70 -6z m781 -52 c36 -43 85 -114 85 -124 0 -6 -10
-19 -22 -31 -36 -33 -90 -26 -194 25 -98 49 -134 76 -134 103 1 49 38 63 150
56 83 -5 97 -9 115 -29z m2173 -8 c23 -24 77 -216 64 -229 -4 -3 -32 -1 -62 6
-59 14 -56 7 -50 91 1 17 -1 58 -5 93 -7 57 -6 62 12 62 11 0 29 -10 41 -23z
m2060 -68 c2 -67 -1 -89 -12 -98 -27 -23 -36 -2 -36 88 0 91 4 104 30 99 12
-3 16 -21 18 -89z m-4653 40 c78 -37 129 -116 141 -221 6 -52 5 -56 -15 -63
-30 -9 -59 18 -63 59 -3 30 -5 31 -58 37 -59 6 -90 16 -90 29 0 24 -35 40 -84
40 -73 0 -121 32 -121 80 0 29 4 35 35 46 19 7 74 13 123 13 69 1 97 -3 132
-20z m3371 13 c23 -15 34 -53 34 -122 0 -76 -8 -88 -54 -76 -33 8 -39 33 -31
127 6 64 10 79 24 79 9 0 21 -4 27 -8z m-3764 -78 c56 -19 77 -40 85 -86 7
-48 -28 -128 -56 -128 -24 0 -39 43 -22 64 29 35 -21 64 -87 51 -20 -4 -57 -8
-81 -9 -36 -1 -47 3 -64 26 -31 41 -17 75 36 86 65 15 139 14 189 -4z m7030
-24 c46 -31 63 -54 52 -71 -9 -15 -25 -10 -43 13 -24 28 -37 18 -45 -37 -4
-24 -11 -47 -16 -50 -28 -17 -62 113 -41 154 16 29 39 27 93 -9z m-2158 -96
c20 -19 20 -13 -4 -65 -11 -24 -20 -56 -20 -71 0 -21 -5 -28 -19 -28 -10 0
-22 7 -25 16 -8 21 -8 149 1 157 12 13 51 7 67 -9z m-6580 -66 c31 -44 7 -108
-39 -108 -27 0 -45 26 -45 65 0 62 52 88 84 43z m3926 -18 c46 -15 79 -19 113
-14 52 7 57 0 27 -39 -26 -33 -67 -41 -122 -26 -23 6 -76 12 -115 12 -65 0
-73 2 -73 19 0 27 48 68 79 68 14 0 55 -9 91 -20z m-860 -21 c66 -13 246 -5
283 12 22 10 30 10 40 0 18 -18 -11 -62 -56 -85 -34 -16 -46 -17 -94 -7 -31 6
-84 11 -118 11 -55 0 -64 -3 -91 -31 -36 -38 -75 -59 -109 -59 -33 0 -33 23
-1 92 14 29 27 61 30 72 5 14 12 17 34 12 15 -4 52 -12 82 -17z m1378 -19 c43
-31 51 -47 30 -68 -16 -16 -51 -15 -93 3 -43 17 -52 38 -31 70 22 33 44 32 94
-5z m-1680 1 c9 -5 12 -27 10 -72 l-3 -64 -35 3 c-19 2 -89 5 -154 8 -140 7
-191 -4 -256 -53 -74 -57 -125 -56 -125 3 0 23 5 30 23 32 13 2 26 10 28 17 3
8 18 22 32 32 22 14 54 19 162 23 129 6 138 7 215 43 89 41 85 40 103 28z
m2020 -17 c36 -15 40 -39 10 -57 -12 -8 -25 -6 -52 8 -29 16 -40 17 -55 8 -24
-15 -55 5 -50 32 7 35 74 39 147 9z m-1268 -60 c25 -4 63 -1 85 5 58 16 70 -2
25 -40 -26 -22 -34 -37 -35 -62 0 -26 -4 -33 -23 -35 -29 -4 -49 12 -67 54
-11 27 -19 33 -40 31 -31 -2 -52 22 -41 48 4 12 13 15 29 11 12 -4 42 -9 67
-12z m-1560 -64 c36 -11 86 -20 113 -20 46 0 48 -1 69 -45 12 -25 26 -45 30
-45 18 0 7 -50 -13 -60 -17 -10 -25 -6 -54 24 -34 36 -58 45 -70 26 -11 -18
-50 -10 -95 21 -26 18 -52 28 -62 25 -65 -21 -61 -23 -53 25 13 77 27 82 135
49z m-207 -47 c15 -9 6 -50 -17 -72 -13 -12 -39 -24 -58 -27 -29 -5 -38 -2
-52 17 -19 28 -21 63 -3 77 22 18 100 21 130 5z m3007 3 c49 -11 55 -16 58
-40 2 -15 -6 -56 -17 -91 -12 -35 -21 -85 -21 -109 0 -59 -2 -60 -243 -52
-680 21 -766 20 -965 -16 l-64 -12 7 -46 c3 -25 10 -67 15 -95 24 -133 30
-192 36 -330 7 -172 10 -177 83 -168 55 6 91 -8 91 -37 0 -18 7 -20 63 -20 34
0 96 5 138 11 l76 12 46 -32 c43 -29 50 -31 84 -22 21 6 68 13 105 17 72 7 98
-2 98 -36 0 -15 10 -17 80 -16 70 1 82 -2 102 -21 20 -20 21 -26 10 -56 -18
-49 -16 -53 34 -101 25 -25 44 -51 42 -58 -6 -15 -66 -15 -325 1 -216 14 -423
14 -423 1 0 -15 33 -28 99 -39 93 -15 109 -35 70 -85 -26 -33 -73 -35 -126 -5
-21 12 -58 27 -83 34 -38 9 -46 15 -48 38 -3 21 -9 27 -28 27 -15 0 -39 14
-60 35 -30 30 -41 35 -82 35 -49 0 -161 -12 -272 -30 -167 -26 -224 -31 -343
-31 -76 0 -125 -4 -122 -10 4 -5 17 -9 29 -9 13 0 34 -8 46 -18 29 -24 20 -56
-22 -78 -26 -14 -39 -14 -94 -3 -47 9 -65 18 -70 31 -7 23 12 47 51 64 29 13
28 13 -28 14 -33 0 -104 9 -159 20 -114 24 -135 21 -198 -20 -51 -34 -76 -37
-109 -14 -27 20 -91 15 -216 -17 -121 -30 -183 -34 -229 -15 -52 22 -75 20
-117 -9 -76 -51 -179 -58 -179 -11 0 33 21 47 93 60 l62 12 -42 22 c-45 24
-66 51 -57 76 8 21 31 27 58 15 19 -9 29 -7 52 10 16 11 65 30 108 41 84 21
106 17 106 -21 0 -13 7 -19 23 -19 35 0 251 38 281 50 32 12 44 7 56 -26 5
-13 16 -24 24 -24 26 0 136 52 136 65 0 6 -11 21 -25 33 -21 18 -24 26 -15 42
15 29 43 25 68 -10 13 -16 29 -30 37 -30 19 0 19 3 -6 52 -18 35 -19 42 -6 55
11 11 19 12 40 2 25 -11 31 -9 65 20 20 17 52 38 70 47 28 12 32 18 26 37 -10
31 -6 105 8 130 19 37 14 118 -11 167 -13 25 -61 82 -108 127 l-84 81 -58 -5
c-40 -4 -84 1 -145 16 l-89 22 -53 -26 c-48 -24 -56 -25 -99 -14 -69 17 -176
6 -311 -34 -169 -50 -190 -52 -211 -21 -19 30 -8 80 32 134 14 19 28 52 32 73
6 40 26 58 45 39 7 -7 16 -7 29 1 26 16 49 1 72 -47 l18 -38 26 26 c14 14 29
26 34 26 5 0 34 9 65 21 44 17 58 27 66 50 5 16 17 29 25 29 9 0 42 -18 75
-40 33 -22 65 -40 71 -40 23 0 97 72 97 95 0 51 5 53 96 47 49 -3 123 1 177 9
50 7 128 13 172 14 75 0 84 -2 123 -31 42 -31 44 -32 92 -19 61 16 70 22 70
45 0 10 5 22 11 25 5 4 78 11 162 16 84 5 179 12 213 15 60 6 60 6 115 -38 42
-34 57 -54 69 -91 8 -26 21 -47 27 -47 16 0 26 38 21 81 l-3 33 75 12 c41 7
120 17 175 24 55 6 136 16 180 22 107 14 126 10 150 -31 37 -63 71 -91 107
-91 29 0 37 5 49 33 11 26 20 32 44 32 29 0 30 -2 33 -47 3 -43 6 -48 27 -48
17 0 30 11 47 42 29 51 51 67 75 52 10 -6 20 -22 23 -35 5 -20 13 -25 50 -27
122 -9 167 60 50 75 -46 6 -57 21 -40 52 12 24 32 25 110 7z m3954 -37 c53
-63 22 -155 -40 -114 -20 13 -24 23 -24 68 0 48 12 77 31 77 4 0 19 -14 33
-31z m-3565 -273 c-2 -82 -10 -117 -32 -130 -15 -9 -23 -5 -47 24 -33 39 -35
65 -5 65 17 0 21 9 25 58 10 108 61 93 59 -17z m3031 -28 c11 -18 20 -47 20
-65 0 -65 -41 -112 -67 -77 -14 19 -18 155 -6 167 14 15 34 5 53 -25z m-2220
-17 c0 -10 -16 -33 -35 -50 -40 -35 -103 -43 -125 -15 -19 22 14 52 76 69 69
19 84 18 84 -4z m2404 -3 c17 -24 20 -75 9 -205 -5 -76 -8 -83 -27 -83 -56 1
-68 37 -61 173 4 62 8 118 10 125 7 20 53 14 69 -10z m-5967 -115 c36 -38 46
-44 53 -33 6 8 10 18 10 22 0 4 9 12 20 18 27 14 67 -9 100 -57 13 -19 48 -55
77 -80 64 -55 68 -80 18 -119 -35 -26 -35 -27 -35 -107 0 -103 -11 -117 -89
-117 -40 0 -72 -8 -111 -26 -31 -15 -73 -27 -97 -27 -40 0 -73 15 -73 34 0 4
36 38 80 75 l80 67 0 73 c0 93 -11 116 -77 160 -108 71 -127 164 -34 164 28 0
42 -8 78 -47z m1279 32 c30 -9 71 -34 108 -65 32 -28 64 -49 70 -47 16 5 20
46 6 62 -19 23 -4 45 29 45 37 0 125 -58 129 -86 2 -17 -22 -40 -113 -109
-108 -82 -225 -194 -225 -216 0 -5 -9 -9 -20 -9 -29 0 -47 78 -59 265 -12 190
-14 187 75 160z m-1466 -24 c24 -47 -27 -80 -136 -88 -52 -4 -78 -2 -89 7 -21
17 -19 27 9 55 23 22 30 24 90 18 55 -5 67 -3 72 11 8 22 41 20 54 -3z m-520
-113 c33 -54 20 -138 -20 -138 -24 0 -41 49 -35 97 12 86 23 94 55 41z m460
-112 c0 -75 -2 -85 -20 -91 -10 -3 -29 -1 -41 5 -21 12 -38 1 -39 -23 0 -5
-19 -5 -42 -1 -67 12 -95 7 -144 -27 -42 -29 -118 -59 -149 -59 -6 0 -19 6
-29 13 -18 13 -18 15 1 58 25 54 73 102 132 131 56 27 242 76 294 77 l37 1 0
-84z m6044 48 c19 -19 20 -9 -3 -74 -20 -58 -32 -69 -48 -48 -15 18 -22 102
-11 122 11 20 42 21 62 0z m-2676 -30 c28 -19 29 -62 2 -115 -22 -42 -63 -70
-80 -53 -6 6 -4 24 5 49 8 22 14 59 15 82 0 36 7 49 30 52 3 1 16 -6 28 -15z
m527 -39 c57 -28 91 -64 82 -89 -14 -35 -235 -53 -282 -22 -21 14 -25 24 -25
63 0 71 19 86 102 80 45 -3 85 -13 123 -32z m-805 -44 c11 -22 13 -120 2 -137
-11 -17 -47 -33 -58 -26 -12 8 -13 151 -1 170 12 18 45 14 57 -7z m-3735 -101
c9 -10 20 -39 22 -64 5 -41 3 -46 -21 -57 -41 -19 -66 10 -66 76 0 28 3 55 7
58 12 13 40 7 58 -13z m259 -161 c21 -16 26 -28 24 -53 -2 -21 -8 -30 -18 -28
-19 5 -36 4 -82 -4 -30 -5 -39 -3 -44 11 -10 26 13 65 49 80 42 18 40 19 71
-6z m3312 -34 c61 -16 74 -26 74 -61 0 -57 -131 -37 -146 21 -6 24 0 55 10 55
3 0 31 -7 62 -15z m-358 -92 c20 -38 -25 -93 -74 -93 -43 0 -74 33 -74 77 l0
33 70 0 c56 0 71 -3 78 -17z m504 -79 c35 -81 4 -180 -44 -137 -14 13 -18 31
-18 93 0 42 3 80 7 83 17 17 36 3 55 -39z m-344 -40 c13 -28 6 -48 -28 -79
-16 -15 -36 -19 -82 -20 -51 0 -63 3 -79 24 -22 26 -25 66 -6 78 6 4 40 6 74
5 35 -2 64 1 68 7 12 20 42 11 53 -15z m-1278 -75 c30 -6 54 -18 60 -29 15
-29 13 -120 -4 -126 -8 -3 -49 12 -92 33 -81 39 -123 85 -110 118 7 18 72 20
146 4z m-321 -19 c10 0 24 -16 35 -40 26 -59 11 -74 -64 -65 -64 8 -107 9
-135 4 -29 -6 -33 50 -5 76 23 21 82 35 124 29 16 -2 36 -4 45 -4z m1019 -5
c64 -27 110 -84 96 -120 -9 -22 -35 -18 -90 12 -34 19 -68 29 -118 33 -42 3
-71 10 -74 17 -2 7 10 26 26 43 25 25 39 30 77 30 25 0 62 -7 83 -15z m226
-11 c10 -27 7 -71 -7 -82 -16 -14 -107 14 -107 33 0 7 9 24 21 39 24 30 83 37
93 10z m-1932 -9 c94 -20 118 -36 118 -78 0 -41 -15 -57 -56 -57 -22 0 -45 11
-74 35 -35 29 -44 33 -60 22 -33 -20 -46 4 -30 53 7 22 17 40 21 40 4 0 41 -7
81 -15z m-187 -91 c74 -115 53 -156 -40 -80 -62 50 -104 59 -136 30 -29 -26
-52 -11 -44 28 17 79 17 78 104 78 l80 0 36 -56z m3027 9 c41 -37 9 -119 -44
-111 -20 3 -23 9 -26 52 -2 27 -1 55 2 62 7 19 46 18 68 -3z m2212 -59 c3 -9
6 -66 6 -129 0 -89 -3 -115 -15 -125 -30 -25 -40 4 -41 118 -1 59 2 117 7 130
10 26 34 29 43 6z m104 -180 c2 -80 0 -104 -12 -113 -28 -24 -36 -2 -36 103 0
106 3 119 30 114 12 -3 16 -22 18 -104z m-103 -418 c22 -32 30 -89 16 -113
-14 -26 -60 -39 -77 -21 -11 11 -11 20 1 53 8 22 14 55 15 73 0 39 22 43 45 8z"/>
<path d="M6528 9609 c-27 -15 -22 -29 10 -29 27 0 52 15 52 32 0 11 -42 9 -62
-3z"/>
<path d="M11627 6765 c-5 -11 -13 -30 -18 -43 -12 -31 -11 -79 2 -88 21 -13
30 14 27 82 -2 48 -6 63 -11 49z"/>
<path d="M3282 5529 c-12 -5 -25 -16 -29 -25 -12 -32 118 -123 177 -124 l25 0
-27 23 c-14 12 -35 40 -46 63 -30 59 -59 78 -100 63z"/>
<path d="M4420 5350 l0 -50 41 0 42 0 -6 36 c-8 45 -23 64 -53 64 -22 0 -24
-4 -24 -50z"/>
<path d="M3174 5066 c-10 -25 0 -61 17 -64 19 -3 30 27 22 58 -6 23 -31 27
-39 6z"/>
<path d="M3301 4983 c-22 -18 -22 -18 26 -18 26 0 56 -4 66 -9 16 -7 18 -5 15
15 -2 20 -9 24 -44 27 -28 2 -48 -3 -63 -15z"/>
<path d="M6830 3366 c0 -43 15 -54 41 -30 26 23 24 31 -11 49 l-30 16 0 -35z"/>
<path d="M3996 3274 c-10 -25 -7 -72 5 -80 6 -3 18 1 26 9 14 13 14 20 3 47
-15 37 -26 45 -34 24z"/>
<path d="M4815 2841 c-7 -88 -2 -131 15 -131 24 0 49 165 31 198 -25 46 -39
26 -46 -67z"/>
<path d="M6470 11640 c0 -11 12 -26 30 -35 60 -31 93 -8 50 35 -27 27 -80 27
-80 0z"/>
<path d="M7386 11413 c-16 -17 -2 -49 45 -98 39 -42 50 -59 47 -81 -2 -15 -10
-30 -18 -35 -8 -4 -42 -20 -74 -35 -81 -37 -131 -90 -151 -159 -9 -30 -22 -55
-28 -55 -7 0 -35 17 -63 38 -81 61 -175 86 -319 86 -136 -1 -195 -17 -195 -55
0 -55 44 -279 62 -314 24 -47 110 -116 125 -101 4 3 -6 38 -22 78 -89 234
-103 299 -69 312 9 3 52 6 97 6 96 0 211 -32 330 -91 l79 -39 30 25 c16 14 36
25 43 25 24 0 25 16 8 64 -23 61 -15 72 80 108 44 17 90 43 108 61 29 29 31
34 25 80 -4 28 -16 67 -26 88 -20 38 -102 104 -114 92z"/>
</g>
</svg>
